<?xml version="1.0" standalone="no"?>
<!DOCTYPE svg PUBLIC "-//W3C//DTD SVG 1.1//EN" "http://www.w3.org/Graphics/SVG/1.1/DTD/svg11.dtd" >
<svg xmlns="http://www.w3.org/2000/svg">
<metadata>
This is a custom SVG font generated by IcoMoon.
<iconset grid="16"></iconset>
</metadata>
<defs>
<font id="icomoon" horiz-adv-x="512" >
<font-face units-per-em="512" ascent="480" descent="-32" />
<missing-glyph horiz-adv-x="512" />
<glyph class="hidden" unicode="&#xf000;" d="M0,480L 512 -32L0 -32 z" horiz-adv-x="0" />
<glyph unicode="&#x61;" d="M 256,192c 70.688,0, 128,57.296, 128,128c0,70.672-57.312,128-128,128
			c-70.672,0-128-57.328-128-128C 128,249.296, 185.328,192, 256,192z M 384,160L 128,160 c-70.672,0-128-57.312-128-128l0-32 l 512,0 l0,32 C 512,102.688, 454.688,160, 384,160z"  />
<glyph unicode="&#x62;" d="M 128.992,320.4c0-1.424, 253.44,0, 253.44,0
			c0,47.232-8.096,83.904-30.72,105.408c-3.312,2.768, 3.376,17.904-0.224,54.128c-18.848,1.6-34.432-36.128-37.808-34.208
			c-21.84,5.776-105.744,4.432-119.68,0.432c-4.608-2.624-14.256,35.456-30.432,33.616c-9.168-17.984, 1.904-49.344-1.936-52.72
			C 129.392,398.448, 128.992,365.616, 128.992,320.4z M 320.496,415.664c 17.632,0, 31.968-14.336, 31.968-31.984c0-17.648-14.336-32-31.968-32
			c-17.664,0-31.968,14.336-31.968,32C 288.528,401.312, 302.848,415.664, 320.496,415.664z M 192.608,415.664c 17.648,0, 31.952-14.336, 31.952-31.984
			c0-17.648-14.32-32-31.952-32c-17.648,0-32,14.336-32,32C 160.608,401.312, 174.96,415.664, 192.608,415.664z M 416.096,443.872l0-217.744 
			c0,0, 63.184,0.816, 63.184,59.2L 479.28,386.688 C 479.28,443.904, 416.096,443.872, 416.096,443.872z M 365.344,288.144L 148.048,288.752
			c0,0-19.056,0.784-19.056-17.088l0-173.776 c0,0, 0.592-19.104, 31.936-29.216l 0.288-42.032c0-15.776, 17.808-26.592, 33.616-26.592
			c 15.776,0, 28.592,8.832, 28.592,24.592l 0.032,40.080l 65.088-1.024l 0.064-67.088c0-15.808, 15.808-28.592, 31.632-28.592
			c 15.776,0, 31.568,12.784, 31.568,28.592l-0.56,65.504c 30.336,7.888, 33.216,33.2, 33.216,33.2L 384.464,271.088 
			C 384.432,271.088, 383.84,288.144, 365.344,288.144z M 32.704,265.056l0-81.344 c0-57.2, 64.208-55.216, 64.208-55.216L 96.912,319.28 
			C 96.912,319.28, 32.704,323.488, 32.704,265.056z"  />
<glyph unicode="&#x63;" d="M 416,400L 256,240L 96,400L0,304L 256,48L 512,304 		z"  />
<glyph unicode="&#x64;" d="M 432,384L 336,480L 80,224L 336-32L 432,64L 272,224 		z"  />
<glyph unicode="&#x65;" d="M 176,480L 80,384L 240,224L 80,64L 176-32L 432,224 		z"  />
<glyph unicode="&#x66;" d="M 256,400L0,144L 96,48L 256,208L 416,48L 512,144 		z"  />
<glyph unicode="&#x67;" d="M 348.928,316.496l-32.464,32.432L 154.032,186.56
			c-26.912-26.928-26.912-70.512,0-97.44c 26.88-26.896, 70.528-26.896, 97.456,0l 194.88,194.896c 44.864,44.8, 44.864,117.52,0,162.336
			c-44.832,44.832-117.552,44.832-162.384,0L 79.344,241.792l0-0.032 c-0.128-0.16-0.288-0.288-0.432-0.4c-62.528-62.576-62.528-163.936,0-226.464
			c 62.512-62.528, 163.952-62.528, 226.496,0c 0.112,0.128, 0.256,0.288, 0.4,0.432l 0.032-0.032l 139.648,139.648l-32.464,32.464l-139.664-139.632
			c-0.144-0.128-0.272-0.304-0.432-0.416c-44.512-44.512-116.992-44.512-161.536,0c-44.512,44.512-44.512,116.96,0,161.504
			c 0.16,0.144, 0.32,0.304, 0.432,0.432l0,0.016 L 316.448,413.904c 26.848,26.848, 70.56,26.848, 97.44,0c 26.864-26.88, 26.864-70.576,0-97.392
			l-194.88-194.88c-8.976-8.976-23.536-8.976-32.512,0c-8.944,8.944-8.944,23.504,0,32.432L 348.928,316.496z"  />
<glyph unicode="&#x68;" d="M0,224A256,256 900 1 0 512,224A256,256 900 1 0 0,224z"  />
<glyph unicode="&#x69;" d="M 143.728,365.312c 18.48,0, 33.488,15.008, 33.488,33.488l0,32.48 
			c0,18.512-15.008,33.472-33.488,33.472c-18.496,0-33.504-14.976-33.504-33.472l0-32.48 C 110.224,380.336, 125.232,365.312, 143.728,365.312z M 370.096,366.32
			c 18.496,0, 33.44,15.008, 33.44,33.472L 403.536,430.272 c0,18.512-14.944,33.472-33.44,33.472s-33.52-14.976-33.52-33.472l0-30.48 
			C 336.576,381.328, 351.6,366.32, 370.096,366.32z M 478.48,398.544l-62.208,0 l0-16.752 c0,0, 1.824-47.728-47.184-47.728s-49.264,47.2-49.264,47.2
			l 0.496,17.296l-127.92,0 l0-16.752 c0,0, 0.336-47.728-48.672-47.728c-49.008,0-47.76,47.2-47.76,47.2L 95.968,398.544 L 33.488,398.544 C 15.008,398.544,0,383.552,0,365.056
			l0-349.344 c0-18.496, 15.008-32.464, 33.488-32.464l 444.992,0 c 18.512,0, 33.52,13.968, 33.52,32.464L 512,365.056 C 512,383.552, 496.992,398.544, 478.48,398.544z
			 M 95.968,13.712L 32.272,13.712 l0,65.248 l 63.696,0 L 95.968,13.712 z M 95.968,110.4L 32.272,110.4 l0,65.232 l 63.696,0 L 95.968,110.4 z M 95.968,206.112L 32.272,206.112 L 32.272,271.36 l 63.696,0 L 95.968,206.112 z
			 M 224.16,13.712l-63.696,0 l0,65.248 l 63.696,0 L 224.16,13.712 z M 224.16,110.4l-63.696,0 l0,65.232 l 63.696,0 L 224.16,110.4 z M 224.16,206.112l-63.696,0 L 160.464,271.36 l 63.696,0 L 224.16,206.112 z
			 M 352.336,13.712l-64.672,0 l0,65.248 l 64.672,0 L 352.336,13.712 z M 352.336,110.4l-64.672,0 l0,65.232 l 64.672,0 L 352.336,110.4 z M 352.336,206.112l-64.672,0 L 287.664,271.36 l 64.672,0 L 352.336,206.112 z
			 M 480.496,13.712L 415.84,13.712 l0,65.248 l 64.656,0 L 480.496,13.712 z M 480.496,110.4L 415.84,110.4 l0,65.232 l 64.656,0 L 480.496,110.4 z M 480.496,206.112L 415.84,206.112 L 415.84,271.36 l 64.656,0 L 480.496,206.112 z"  />
<glyph unicode="&#x6a;" d="M 146.896,47.28c-16.784,0-29.472-12.704-29.472-29.472
			c0-16.816, 12.688-30.4, 29.472-30.4c 16.8,0, 30.432,13.6, 30.432,30.4C 177.328,34.576, 163.696,47.28, 146.896,47.28z M 476.992,373.904L 117.712,373.472
			L 115.248,414.896c0,0, 0.544,45.696-57.76,45.696C-0.832,460.592,0,403.488,0,403.488l 62.336,0.064l 57.312-327.2l 324.016,0 l0,59.12 L 146.208,135.472 l 0.544,30.416
			l 291.024,0.384c0,0, 35.2-1.184, 35.2,31.84L 512,340.992C 512,340.992, 507.92,373.904, 476.992,373.904z M 431.728,252c0,0-12.272-27.216-30-27.216
			l-210.64,0.048c-9.44,0-28.176,17.824-28.176,27.248l-6.384,44.928c0,9.392, 7.632,17.040, 17.056,17.040l 252.208,0.864
			c 9.408,0, 17.040-7.648, 17.040-17.072L 431.728,252z M 353.968,46.816c-16.656,0-29.232-12.576-29.232-29.232
			c0-16.672, 12.576-30.176, 29.232-30.176c 16.672,0, 30.176,13.504, 30.176,30.176C 384.144,34.24, 370.64,46.816, 353.968,46.816z"  />
<glyph unicode="&#x6b;" d="M 491.52,448C 324.304,321.408, 163.888,152.112, 163.888,152.112L 48.288,256L0,206.816
			C 47.504,162.16, 157.584,44.224, 194.816,0C 299.616,175.088, 408.544,305.664, 512,425.072L 491.52,448z"  />
<glyph unicode="&#x6c;" d="M 512,352L 384,480L 256,352L 128,480L0,352L 128,224L0,96L 128-32L 256,96L 384-32L 512,96L 384,224 		z"  />
<glyph unicode="&#x6d;" d="M 384,256L 384,416 c0,17.6-14.4,32-32,32L 32,448 C 14.4,448,0,433.6,0,416l0-160 c0-17.6, 14.4-32, 32-32l 32,0 l0-64 l 64,64l 224,0 C 369.6,224, 384,238.4, 384,256z
			 M 480,288l-64,0 l0-64 c0-17.6-14.4-32-32-32L 160,192 l0-96 c0-17.6, 14.4-32, 32-32l 192,0 l 64-64l0,64 l 32,0 c 17.6,0, 32,14.4, 32,32L 512,256 C 512,273.6, 497.6,288, 480,288z"  />
<glyph unicode="&#x6e;" d="M 480,352c 17.664,0, 32,14.304, 32,32L 512,448 l-64,0 L 448,480 L 32,480 C 14.4,480,0,465.6,0,448l0-448 c0-17.6, 14.4-32, 32-32l 416,0 l0,128 l 32,0 
			c 17.664,0, 32,14.32, 32,32l0,64 l-64,0 l0,32 l 32,0 c 17.664,0, 32,14.304, 32,32l0,64 l-64,0 L 448,352 L 480,352 z M 288,333.248c 24.992,0, 45.232-20.272, 45.232-45.248
			c0-24.992-20.24-45.28-45.232-45.28s-45.248,20.272-45.248,45.28C 242.752,312.976, 263.008,333.248, 288,333.248z M 128,0L 96,0 L 96,448 l 32,0 L 128,0 z M 208.656,128
			c0,96, 53.28,96, 79.904,96c 26.64,0, 79.904,0, 79.904-96L 208.656,128 z"  />
<glyph unicode="&#x6f;" d="M 256,472C 114.624,472,0,385.472,0,278.672c0-83.36, 69.952-154.464, 167.984-181.568
			c 1.44-8.128, 3.248-19.664, 3.248-26.784c0-33.664-12.88-65.536-35.792-94.336c 35.44,14.928, 85.456,62.912, 116.464,109.456
			c 1.376-0.032, 2.72-0.064, 4.096-0.064c 141.408,0, 256,86.528, 256,193.296C 512.032,385.472, 397.408,472, 256,472z M 253.712,136.816
			c-17.232,0-31.2,13.968-31.2,31.2s 13.968,31.2, 31.2,31.2c 17.248,0, 31.216-13.968, 31.216-31.2S 270.976,136.816, 253.712,136.816z
			 M 326.576,312.976c-1.632-5.504-3.904-10.688-6.784-15.632c-2.88-4.912-6.336-9.536-10.4-13.952s-8.464-8.624-13.344-12.656
			c-5.44-4.496-20.832-14.784-20.832-19.52c0-4.688,0-23.184-1.68-23.184c-1.664,0-40.608,0-40.608,0c-0.32,21.536, 3.312,32.736, 7.632,41.664
			c 4.368,9.024, 12.56,16.56, 24.592,26.64c 5.216,4.256, 9.28,7.056, 12.16,10.336s 5.056,5.744, 6.592,8.336
			c 1.52,2.608, 2.416,4.784, 2.784,7.040c 0.32,2.256, 0.496,4.464, 0.496,6.912c0,4.496-0.768,8.592-2.336,12.4
			c-1.568,3.808-3.776,7.056-6.688,9.84c-2.88,2.784-6.288,4.912-10.224,6.48c-3.936,1.6-10.368,2.224-15.216,2.464
			c-13.44,0.656-29.568-8.416-32.64-46.080l-41.632,0 c 1.056,21.552, 3.632,24.736, 7.712,33.92c 4.096,9.2, 9.472,18.544, 16.16,24.944
			c 6.64,6.448, 14.384,12.176, 23.232,15.648c 8.848,3.44, 18.48,5.6, 28.848,5.6c 11.12,0, 21.216-1.408, 30.336-4.592
			c 9.168-3.152, 16.992-7.504, 23.52-13.168c 6.528-5.664, 11.6-12.368, 15.248-20.256c 3.664-7.856, 5.472-16.384, 5.472-25.632
			C 328.992,324.336, 328.176,318.48, 326.576,312.976z"  />
<glyph unicode="&#x5d;" d="M 256,416L 256,480 L 64,480 l0-64 L0,416 l0-192 l 64,0 l0-256 l 192,0 L 256,224 l 256,0 L 512,416 L 256,416 z M 64,256L 32,256 L 32,384 l 32,0 L 64,256 z M 224,416
			l-64,0 l0-32 l 64,0 l0-32 l-64,0 l0-32 l 64,0 l0-32 l-64,0 l0-32 l 64,0 l0-32 l-64,0 l0-32 l 64,0 l0-32 l-64,0 l0-32 l 64,0 l0-32 l-64,0 l0-32 l 64,0 l0-64 L 96,0 L 96,448 l 128,0 L 224,416 z M 480,256l-32,0 l0,64 l-32,0 l0-64 l-32,0 l0,64 l-32,0 l0-64 l-32,0 l0,64 l-32,0 l0-64 l-32,0 L 256,384 l 224,0 L 480,256 z"  />
<glyph unicode="&#x72;" d="M 502.32,401.008l-63.28,66.336c0,0-18.896,25.856-40.992,3.648
			l-42.128-45.504l 106.192-103.952l 40.96,41.984C 503.056,363.52, 523.664,379.584, 502.32,401.008z M 70.624,142.496l 115.056-99.36l 252.496,250.48
			l-112.4,106.8L 70.624,142.496z M0-32l 56.8,7.92l-42.96,39.936L0-32z M 25.072,46.48l 65.76-55.808l 61.84,24.528l-113.216,95.328
			L 25.072,46.48z"  />
<glyph unicode="&#x73;" d="M 496.624,416.064L 15.376,416.064 L 256,203.040L 496.624,416.064z M 325.616,214.832L 512,54.208L 512,414.288 L 325.616,214.832z
			 M0,414.288l0-360.080 l 186.4,160.624L0,414.288z M 256,152.304l-44.496,39.952L0,31.936l 512,0 l-211.504,160.32L 256,152.304z"  />
<glyph unicode="&#x74;" d="M0,288l 73.376,73.376l 72.688-72.624l 45.248,45.248L 118.624,406.624L 192,480
			L0,480 L0,288 z M 146.752,160l-73.376-73.376L0,160l0-192 l 192,0 l-73.376,73.376L 192,114.752L 146.752,160z M 365.248,160L 320,114.752l 73.376-73.376L 320-32l 192,0 L 512,160 
			l-73.376-73.376L 365.248,160z M 320,480l 73.376-73.376l-72.688-72.624l 45.248-45.248l 72.688,72.624L 512,288L 512,480 L 320,480 z"  />
<glyph unicode="&#x29;" d="M 426.672,480L 85.344,480 C 38.416,480,0,441.584,0,394.656l0-341.328 C0,6.352, 38.416-32, 85.344-32L 256-32 L 256,160.496 l-64,0 L 192,240 l 64,0 
			l0,39.984 C 256,337.344, 299.040,384, 352,384l 64,0 l0-79.248 l-64,0 c-7.552,0-16-10.272-16-24.016L 336,240 l 80,0 l0-79.504 l-80,0 L 336-32 l 90.672,0 C 473.616-32, 512,6.352, 512,53.328L 512,394.656 
			C 512,441.584, 473.616,480, 426.672,480z"  />
<glyph unicode="&#x76;" d="M 450,416L 64.992,416 C 2.72,416,0,374.928,0,321.76l0-1.008 l 512,0 L 512,321.76 
			C 512,374.928, 511.904,416, 450,416z M0,127.248C0,74.080, 1.28,32, 60.992,32l 388.992,0 C 511.904,32, 512,74.080, 512,127.248L 512,287.664 L0,287.664 L0,127.248 z
			 M 192,95.168L 96,95.168 l0,33.072 l 96,0 L 192,95.168 z M 320,95.168l-96,0 l0,33.072 l 96,0 L 320,95.168 z M 64,192.416l 288,0 l0-33.088 L 64,159.328 L 64,192.416 z"  />
<glyph unicode="&#x77;" d="M 123.936,97.312c-13.584,13.184-24.336,29.312-24.336,49.184c0,11.808, 3.792,23.168, 9.040,33.28
			c-5.376-0.4-10.864-0.496-16.528-0.496C 54.928,179.28, 23.36,191.312,0,211.2l0-134.48 c 26.736,12.672, 58.464,20.32, 92.928,20.32
			C 103.76,97.024, 113.664,97.312, 123.936,97.312z M 117.952,197.424c 46-1.376, 76.88,46.336, 68.96,106.608C 178.944,364.272, 135.2,412.592, 89.168,414
			c-46,1.344-76.864-44.752-68.912-105.024C 28.176,248.736, 71.92,198.8, 117.952,197.424z M 156.272,73.36
			c-13.52,4.352-28.432,6.928-44.432,7.104C 65.904,80.944, 23.2,62.096,0,34.288L0,0 c0-17.6, 14.4-32, 32-32l 196.576,0 
			c 0.912,5.584, 1.344,11.296, 1.344,17.216c0,6.272-0.784,12.368-2.192,18.336C 220.208,32.976, 193.504,47.568, 156.272,73.36z M 512,352L 512,448 
			c0,17.6-14.4,32-32,32L 32,480 C 14.4,480,0,465.6,0,448l0-51.040 c 29.184,25.744, 69.696,42.24, 111.504,42.24c 44.656,0, 178.624,0, 178.624,0l-39.984-28.8l-56.656,0 
			c 37.584-14.4, 57.584-58.080, 57.584-102.896c0-37.616-20.88-69.984-50.448-92.96c-28.8-22.448-34.288-31.872-34.288-50.96
			c0-16.288, 30.864-43.984, 47.024-55.376c 47.184-33.296, 62.432-64.16, 62.432-115.728c0-8.24-0.992-16.432-3.008-24.48L 480-32 c 17.6,0, 32,14.4, 32,32L 512,320 l-96,0 l0-96 
			l-32,0 l0,96 l-96,0 L 288,352 l 96,0 L 384,448 l 32,0 l0-96 L 512,352 z"  />
<glyph unicode="&#x78;" d="M0,256l 224.128,0 L 224.128,480 L0,480 L0,256 z M0-32l 224.128,0 L 224.128,192 L0,192 L0-32 z M 287.872,480l0-223.984 L 512,256.016 L 512,480 L 287.872,480 z M 287.872-32L 512-32 L 512,192 
			L 287.872,192 L 287.872-32 z"  />
<glyph unicode="&#x79;" d="M 256,480C 114.608,480,0,365.392,0,224s 114.608-256, 256-256s 256,114.608, 256,256
			S 397.392,480, 256,480z M 256,32c-26.496,0-48,21.472-48,48c0,26.496, 21.504,48, 48,48s 48-21.504, 48-48C 304,53.472, 282.496,32, 256,32z M 368.064,302.96
			c-2.48-8.448-5.936-16.432-10.4-24.016c-4.432-7.536-9.776-14.704-16.032-21.472c-6.224-6.752-13.040-13.264-20.528-19.488
			c-8.352-6.944-15.072-13.072-20.144-18.384c-5.056-5.344-8.48-10-10.288-13.904C 287.344,198.528, 284.832,181.344, 288,160l-63.968,0 
			c-0.528,37.936, 5.056,56.48, 11.696,70.256c 6.752,13.856, 19.36,28.544, 37.888,44.032c 8.016,6.544, 14.24,12.416, 18.672,17.472
			c 4.448,5.056, 7.856,9.584, 10.144,13.584c 2.304,4.016, 3.744,7.76, 4.288,11.216c 0.528,3.456, 0.784,7.040, 0.784,10.816
			c0,6.912-1.184,13.328-3.616,19.2c-2.384,5.872-5.808,10.944-10.256,15.184c-4.464,4.288-9.712,7.648-15.744,10.032
			S 265.088,375.424, 257.6,375.424c-29.168,0-46.96-20.368-53.376-61.104L 140.192,314.32 c 1.6,17.44, 5.568,33.2, 11.888,47.328
			c 6.32,14.144, 14.592,26.16, 24.832,36.016c 10.208,9.904, 22.128,17.472, 35.728,22.816c 13.616,5.344, 28.416,8.016, 44.416,8.016
			c 17.072,0, 32.672-2.448, 46.704-7.344s 26.096-11.696, 36.112-20.4c 10.064-8.704, 17.888-19.152, 23.488-31.216
			c 5.6-12.096, 8.416-25.28, 8.416-39.472C 371.792,320.432, 370.544,311.424, 368.064,302.96z"  />
<glyph unicode="&#x7a;" d="M 256.032,480C 114.656,480,0,365.376,0,223.984
			C0,82.592, 114.656-32, 256.032-32C 397.424-32, 512,82.592, 512,223.984C 512,365.376, 397.424,480, 256.032,480z M 255.968,31.072
			c-107.072,0-193.888,86.768-193.888,193.84c0,107.088, 86.816,193.344, 193.888,193.344c 107.056,0, 193.824-86.272, 193.824-193.344
			C 449.792,117.84, 363.024,31.072, 255.968,31.072z M 351.44,255.664l-63.648,0.624L 287.792,356.432 c0,16.224-17.136,29.36-33.36,29.36
			c-16.192,0-31.328-13.136-31.328-29.36l0-134.080 c0-16.224, 13.136-29.344, 29.328-29.344l 98.992,0 c 16.224,0, 29.344,13.12, 29.344,29.344
			C 380.784,238.544, 367.664,255.664, 351.44,255.664z"  />
<glyph unicode="&#x41;" d="M 416,288L 416,384L 352,384L 352,352L 255.984,448L0,191.984L 64,191.984L 64,0L 224,0L 224,128.016L 288,128.016L 288,0L 447.984,0L 447.984,191.984L 512,191.984 		z"  />
<glyph unicode="&#x42;" d="M 256.016,480c-85.392,0-154.672-68.352-154.672-152.544c0-42.112, 25.072-86.224, 53.776-133.984
			c 28.688-47.712, 6.016-100.464, 103.696-99.056c 93.616,1.376, 69.312,44.272, 96.624,92.032c 27.28,47.712, 55.2,98.928, 55.2,141.008
			C 410.656,411.648, 341.36,480, 256.016,480z M 191.76,14.944C 194.272,1.216, 205.024-32, 256.016-32c 50.944,0, 61.696,33.216, 64.256,46.944
			c-28.848-8.8-41.984-9.296-64.256-9.296C 233.712,5.648, 220.56,6.144, 191.76,14.944z M 191.072,80.784l0-40.608 
			c 19.936-6.464, 41.888-10.112, 64.944-10.112c 23.008,0, 44.96,3.648, 64.912,10.112l0,37.52 c-11.184-10.272-29.472-13.12-62.096-13.664
			C 222.608,63.44, 202.944,67.84, 191.072,80.784z"  />
<glyph unicode="&#x43;" d="M 256,480C 114.608,480,0,365.392,0,224c0-141.392, 114.608-256, 256-256
			c 141.392,0, 256,114.608, 256,256C 512,365.392, 397.392,480, 256,480z M 256,416c 35.36,0, 64-28.672, 64-64c0-35.36-28.64-64-64-64s-64,28.64-64,64C 192,387.328, 220.64,416, 256,416z
			 M 352,32L 160,32 l0,32 l 32,0 L 192,224 l-32,0 l0,32 l 160,0 l0-192 l 32,0 L 352,32 z"  />
<glyph unicode="&#x44;" d="M 331.552,398.144C 364.96,438.304, 358.032,480, 358.032,480
			s-46.8-0.224-80.416-44.576c-29.92-39.408-22.32-73.136-22.32-73.136S 295.872,355.264, 331.552,398.144z M 395.712,208.672
			c0,68.704, 55.376,97.008, 55.376,97.008s-28.336,51.216-100.288,51.216c-41.824,0-73.92-23.808-91.232-23.808c-20.176,0-50.256,22.368-89.024,22.368
			c-59.664,0-123.248-53.408-123.248-155.216C 47.296,96.736, 122.432-32, 181.904-32c 20.768,0, 52.624,20.928, 84.768,20.928
			c 31.52,0, 54.752-20.176, 84.672-20.176c 65.136,0, 113.36,135.728, 113.36,135.728S 395.712,131.184, 395.712,208.672z"  />
<glyph unicode="&#x45;" d="M0,352l 127.744,0 L 127.744,480 L0,480 L0,352 z M0-32l 127.744,0 l0,128 L0,96 L0-32 z M0,160l 127.744,0 l0,128 L0,288 L0,160 z
			 M 191.632,480l0-128 L 512,352 L 512,480 L 191.632,480 z M 191.632-32L 512-32 l0,128 L 191.632,96 L 191.632-32 z M 191.632,160L 512,160 l0,128 L 191.632,288 L 191.632,160 z"  />
<glyph unicode="&#x46;" d="M 369.12,433.136c-62.512,62.48-163.744,62.48-226.272,0
			c-62.496-62.464-62.496-163.824,0-226.256C 142.896,206.88, 256,96, 256-32c0,128, 113.136,238.88, 113.136,238.88
			C 431.648,269.312, 431.648,370.672, 369.12,433.136z M 256,256C 220.624,256, 192,284.608, 192,320.016C 192,355.392, 220.624,384, 256,384
			c 35.36,0, 64.016-28.624, 64.016-64C 320.016,284.608, 291.36,256, 256,256z"  />
<glyph unicode="&#x49;" d="M0,288L 512,288L 512,160L0,160z"  />
<glyph unicode="&#x4a;" d="M 400,480L 112,480 C 94.384,480, 80,465.616, 80,448l0-448 c0-17.616, 14.384-32, 32-32l 288,0 c 17.616,0, 32,14.384, 32,32L 432,448 
			C 432,465.616, 417.616,480, 400,480z M 256-8.88c-13.728,0-24.912,11.12-24.912,24.864s 11.168,24.912, 24.912,24.912s 24.912-11.168, 24.912-24.912
			S 269.728-8.88, 256-8.88z M 400,64.016L 112,64.016 L 112,416 l 288,0 L 400,64.016 z"  />
<glyph unicode="&#x4b;" d="M0,33.12l 512,0 l0,62.128 L0,95.248 L0,33.12 z M0,192.944l 512,0 l0,62.112 L0,255.056 L0,192.944 z
			 M0,414.88l0-62.112 l 512,0 L 512,414.88 L0,414.88 z"  />
<glyph unicode="&#x4c;" d="M 71.264,258.096c-8.88,0-15.632-3.168-21.056-9.792
			c-4.24,6.496-10.72,9.792-19.072,9.792C 17.376,258.096,0,249.76,0,237.312c0-12.48,0-47.152,0-47.152l 13.504,0 l0,40.928 
			c0,10.336, 6.352,14.976, 13.904,14.976c 7.552,0, 13.52-4.496, 13.52-14.976l0-40.928 l 13.504,0 l0,41.584 c0,9.68, 6.624,14.32, 13.92,14.32
			c 7.552,0, 13.504-4.496, 13.504-14.976l0-40.928 L 95.36,190.16 l0,42.912 c0,7.552-1.984,13.92-7.152,18.944C 84.24,255.856, 78.144,258.096, 71.264,258.096z
			 M 128,210.032l-16.032,47.264L 97.664,257.296 l 23.44-63.968L 117.392,182.88c-2-5.44-3.984-7.152-9.664-7.152L 104.288,175.728 l0-12.192 l 5.424,0 
			c 5.168,0, 10.064,1.184, 13.776,4.896c 1.984,2, 3.584,4.64, 4.896,8.336l 29.664,80.528L 143.616,257.296 L 128,210.032z M 187.856,212.8l0,71.664 l-21.728,0 
			l0-73.248 c0-9.808, 6.368-21.056, 22.128-21.056l 11.52,0 l0,18.272 l-7.552,0 C 189.312,208.416, 187.856,210.032, 187.856,212.8z M 237.536,262.208
			c-11.536,0-18.672-4.624-22.912-9.136c-5.968-6.48-7.824-13.36-7.824-27.28c0-14.032, 1.856-20.8, 7.824-27.28
			c 4.24-4.512, 11.376-9.136, 22.912-9.136c 11.52,0, 18.672,4.624, 22.912,9.136c 5.952,6.48, 7.808,13.248, 7.808,27.28
			c0,13.92-1.856,20.8-7.808,27.28C 256.192,257.584, 249.056,262.208, 237.536,262.208z M 243.36,210.96c-1.328-1.328-3.184-1.984-5.824-1.984
			s-4.512,0.656-5.84,1.984c-2.784,2.784-3.184,7.808-3.184,14.832s 0.4,12.048, 3.184,14.832c 1.328,1.328, 3.184,2, 5.84,2
			s 4.496-0.672, 5.824-2c 2.768-2.784, 3.168-7.808, 3.168-14.832S 246.128,213.728, 243.36,210.96z M 344.16,224.448l-12.336,36.96l-15.088,0 
			l-12.32-36.96l-8.88,36.96l-22.928,0 l 21.456-71.248l 17.36,0 l 12.848,39.072l 12.848-39.072l 17.36,0 l 21.456,71.248l-22.928,0 L 344.16,224.448z
			 M 411.584,262.208c-18.688,0-31.936-13.104-31.936-36.416c0-30.736, 18.16-36.416, 33.904-36.416c 13.248,0, 20.4,3.968, 27.68,11.248l-12.976,12.992
			c-3.84-3.856-7.152-5.968-14.72-5.968c-8.064,0-12.576,5.296-12.576,11.12l 42.656,0 l0,9.664 C 443.632,247.104, 432.24,262.208, 411.584,262.208z
			 M 400.976,233.2c0,1.712, 0.272,3.696, 1.184,5.568c 1.328,3.040, 4.24,5.568, 9.424,5.568c 5.152,0, 8.064-2.512, 9.392-5.568
			c 0.928-1.856, 1.2-3.84, 1.2-5.568L 400.976,233.2 z M 490.544,235.184l-11.008,1.056c-4.896,0.528-4.624,3.168-4.624,3.968
			c0,1.6, 1.696,4.112, 7.008,4.112c 5.568,0, 11.52-0.656, 15.088-4.256l 13.392,13.392c-7.024,7.008-16.432,8.736-28.080,8.736
			c-14.192,0-28.352-7.808-28.352-23.568c0-13.92, 8.336-19.488, 20.672-20.672l 10.992-1.056c 4.24-0.384, 5.168-2.512, 5.168-4.496
			c0-3.696-6.096-4.64-9.28-4.64c-3.696,0-11.392,0-17.344,5.968l-14.032-14.048c 9.776-9.792, 20.272-10.336, 30.992-10.336
			c 16.56,0, 30.864,7.28, 30.864,24.112C 512,224.864, 505.52,233.728, 490.544,235.184z"  />
<glyph unicode="&#x4d;" d="M 416,288L 224,288 l0-32 l 192,0 L 416,288 z M 480,384l-96,0 L 384,448 c0,17.6-14.384,32-32,32L 32,480 
			C 14.4,480,0,465.6,0,448l0-352 c0-17.616, 14.4-32, 32-32l 96,0 l0-64 c0-17.616, 14.4-32, 32-32l 320,0 c 17.616,0, 32,14.384, 32,32L 512,352 C 512,369.6, 497.616,384, 480,384z M 128,352l0-240 L 48,112 L 48,432 l 288,0 l0-48 
			L 160,384 C 142.4,384, 128,369.6, 128,352z M 464,16L 176,16 L 176,336 l 288,0 L 464,16 z M 416,224L 224,224 l0-32 l 192,0 L 416,224 z M 352,96l-128,0 l0-32 l 128,0 L 352,96 z M 416,160L 224,160 l0-32 l 192,0 L 416,160 z"  />
<glyph unicode="&#x4e;" d="M 470.72,261.776l0,23.088 l-82.448,0 l-132.224,56.656l-132.256-56.656L 41.328,284.864 
			l0-23.088 L0,261.776 l0-155.312 l 512,0 l0,155.312 L 470.72,261.776 z M 493.056,125.408L 18.944,125.408 l0,117.44 l 41.312,0 l0,23.088 l 67.408,0 l 128.384,55.024l 128.352-55.024l 67.376,0 l0-23.088 l 41.28,0 L 493.056,125.408 
			z"  />
<glyph unicode="&#x4f;" d="M0-32l 160.336,0 L 160.336,480 L0,480 L0-32 z M 351.664,480l0-512 L 512-32 L 512,480 L 351.664,480 z"  />
<glyph unicode="&#x50;" d="M0,416l0-384 l 512,0 L 512,416 L0,416 z M 480,64l-32,0 l-96,144l-64-48l-128,160L 64,64L 32,64 L 32,384 l 448,0 L 480,64 z M 400,256c 26.512,0, 48,21.472, 48,48
			s-21.488,48-48,48s-48-21.472-48-48S 373.488,256, 400,256z"  />
<glyph unicode="&#x51;" d="M 426.675,480L 85.324,480 C 38.199,480,0,441.79,0,394.657l0-341.315 C0,6.209, 38.199-32, 85.324-32l 341.351,0 
	C 473.8-32, 512,6.209, 512,53.342L 512,394.657 C 512,441.79, 473.8,480, 426.675,480z M 280.822,137.941
	c-23.26,1.807-33.021,13.328-51.252,24.404c-10.030-52.589-22.281-103.009-58.569-129.344
	c-11.202,79.484, 16.447,139.182, 29.285,202.557c-21.893,36.853, 2.635,111.017, 48.81,92.737
	c 56.813-22.474-49.2-137.004, 21.966-151.308c 74.31-14.934, 104.644,128.929, 58.571,175.712
	c-66.579,67.553-193.799,1.54-178.155-95.178c 3.807-23.646, 28.236-30.819, 9.762-63.451c-42.61,9.446-55.325,43.051-53.688,87.856
	c 2.634,73.337, 65.892,124.682, 129.343,131.783c 80.242,8.982, 155.553-29.454, 165.953-104.938
	C 414.553,223.577, 366.623,131.307, 280.822,137.941z"  />
<glyph unicode="&#x52;" d="M 464.32,241.12C 462.224,243.184, 81.040,480, 80.32,480
			C 44.384,480, 43.728,447.296, 43.728,427.104l0-405.568 C 43.728,1.328, 43.168-32, 80.32-32c 4.384,0, 381.872,236.336, 383.904,238.368
			C 469.152,211.36, 470.016,235.392, 464.32,241.12z"  />
<glyph unicode="&#x53;" d="M 320.080,287.36L 320.080,480L 192.32,480L 192,287.232L0,287.232L0,159.568L 192.112,159.568L 192.112-32L 320.080-32L 320.080,159.696L 512,159.696L 512,287.36 		z"  />
<glyph unicode="&#x54;" d="M 383.984,448L 128,448 l0-64 l 255.984,0 L 383.984,448 z M 479.968,352L 31.984,352 C 14.4,352,0,337.6,0,320l0-160 c0-17.584, 14.4-31.984, 31.984-31.984L 128,128.016 L 128,0 
			l 255.984,0 l0,128.016 l 95.984,0 c 17.616,0, 32.032,14.4, 32.032,31.984L 512,320 C 512,337.6, 497.584,352, 479.968,352z M 352,31.984L 159.984,31.984 l0,160 L 352,191.984 L 352,31.984 z M 464,280.784
			c-12.816,0-23.2,10.384-23.2,23.2c0,12.832, 10.384,23.232, 23.2,23.232c 12.8,0, 23.184-10.384, 23.184-23.232
			C 487.184,291.168, 476.8,280.784, 464,280.784z"  />
<glyph unicode="&#x55;" d="M 512,281.488L 335.104,307.152L 255.984,467.456L 176.912,307.152L0,281.488L 128,156.72L 97.776-19.456L 255.984,63.696L 414.208-19.456L 383.984,156.72 		z"  />
<glyph unicode="&#x56;" d="M 1.040,70.928c-0.032-0.032-0.064-0.032-0.096-0.064l 0.032,0 C 1.008,70.896, 1.008,70.896, 1.040,70.928
			z M 501.008,78.112c-140.304,107.040-72.544,323.744-213.168,351.024c 0.096,0.944, 0.176,1.888, 0.176,2.848C 288.016,449.664, 273.664,464, 256,464
			c-17.664,0-32-14.336-32-32.016c0-0.976, 0.064-1.92, 0.128-2.848C 83.536,401.856, 151.28,185.152, 10.992,78.112C 3.856,73.68,0,68.992,0,64.16
			c0-23.696, 90.816-43.344, 210.464-47.392C 216.864-2.288, 234.816-16, 256-16c 21.184,0, 39.12,13.712, 45.504,32.768
			C 421.184,20.816, 512,40.448, 512,64.16C 512,68.992, 508.144,73.68, 501.008,78.112z M 256,448c 8.816,0, 16-7.184, 16-16
			c0-0.224-0.032-0.432-0.032-0.656C 266.896,431.76, 261.552,431.984, 256,431.984c-5.584,0-10.896-0.224-15.968-0.656
			C 240.032,431.552, 240,431.76, 240,431.984C 240,440.8, 247.184,448, 256,448z M 474.88,56.272c-13.296-4.64-31.008-8.816-52.656-12.416
			c-33.648-5.616-74.496-9.344-118.24-10.928C 303.488,59.008, 282.208,80, 256,80s-47.472-20.992-47.984-47.072
			c-43.744,1.584-84.608,5.312-118.24,10.928c-21.664,3.616-39.344,7.776-52.656,12.416c-9.408,3.296-14.4,6.096-16.944,7.888
			c 2.544,1.744, 7.536,4.544, 16.944,7.84c 13.312,4.64, 31.008,8.816, 52.656,12.416c 45.712,7.6, 104.736,11.792, 166.224,11.792
			c 61.472,0, 120.496-4.208, 166.224-11.792c 21.664-3.616, 39.36-7.776, 52.656-12.416c 9.424-3.296, 14.4-6.096, 16.96-7.84
			C 489.28,62.352, 484.304,59.568, 474.88,56.272z"  />
<glyph unicode="&#x57;" d="M 426.67,480L 85.343,480 C 38.405,480,0,441.594,0,394.656l0-341.314 C0,6.375, 38.406-32, 85.344-32L 426.67-32 
	c 46.938,0, 85.33,38.374, 85.33,85.342L 512,394.656 C 512,441.594, 473.608,480, 426.67,480z M 139.472,64.376C 115.487,64.376, 96,83.722, 96,107.69
	c0,23.842, 19.486,43.406, 43.472,43.406c 24.079,0, 43.53-19.564, 43.53-43.406C 183.001,83.722, 163.55,64.376, 139.472,64.376z
	 M 248.734,64.002c0,40.905-15.904,79.409-44.73,108.222c-28.857,28.875-67.188,44.813-107.952,44.813L 96.052,279.63 
	c 118.826,0, 215.563-96.721, 215.563-215.627L 248.734,64.002L 248.734,64.002z M 359.814,64.002
	c0,145.531-118.329,263.97-263.688,263.97L 96.126,390.596 c 180.001,0, 326.473-146.562, 326.473-326.596L 359.814,64.002L 359.814,64.002z"  />
<glyph unicode="&#x58;" d="M 448,480L0,480 l0-512 l 512,0 L 512,416 L 448,480z M 256,416l 64,0 l0-128 l-64,0 L 256,416 z M 448,32L 64,32 L 64,416 l 32,0 l0-160 l 288,0 L 384,416 
			l 37.504,0 L 448,389.504L 448,32 z"  />
<glyph unicode="&#x59;" d="M 31.52,384.56l 64.048,0 l 0.128,31.168L0,415.728 l0-383.376 l 95.584-0.096l0,32.016 
			L 31.52,64.272 L 31.52,384.56 z M 63.968,95.088l 64.24,0 L 128.208,351.536 L 63.968,351.536 L 63.968,95.088 z M 224.352,95.472l 63.248,0 L 287.6,351.536 l-63.248,0 L 224.352,95.472 z M 448.608,351.536l-32.912,0 l0-256.432 
			l 32.912,0 L 448.608,351.536 z M 320.432,95.472l 63.232,0 L 383.664,351.536 l-63.232,0 L 320.432,95.472 z M 159.472,95.088l 32.912,0 L 192.384,351.536 L 159.472,351.536 L 159.472,95.088 z M 416.304,415.728l 0.128-31.168
			l 64.048,0 l0-320.288 l-64.048,0 l0-32.016 L 512,32.352L 512,415.728 L 416.304,415.728 z"  />
<glyph unicode="&#x5a;" d="M 507.472,36.032l-137.088,130.256
			c 43.808,68.464, 40.544,184.512-32.32,254.896C 258.912,497.616, 132.32,495.408, 55.888,416.288c-76.416-79.136-74.176-205.728, 4.96-282.16
			c 71.36-68.928, 188.848-67.408, 249.664-23.648l 138.144-135.392c 5.072-5.504, 13.488-5.6, 18.704-0.192l 40.992,42.448
			C 513.568,22.752, 513.152,31.12, 507.472,36.032z M 304.512,185.328c-52.928-54.784-140.496-56.304-195.296-3.424
			C 54.464,234.816, 52.96,322.384, 105.84,377.184c 52.88,54.752, 140.496,56.304, 195.264,3.392C 355.872,327.696, 357.424,240.048, 304.512,185.328z"  />
<glyph unicode="&#x30;" d="M 448,256l-32,0 L 416,352 c0,70.672-71.648,128-160,128S 96,422.672, 96,352l0-96 L 64,256 c-17.6,0-32-14.4-32-32l0-224 c0-17.6, 14.4-32, 32-32l 384,0 
			c 17.6,0, 32,14.4, 32,32L 480,224 C 480,241.6, 465.6,256, 448,256z M 352,256L 160,256 L 160,352 c0,19.344, 14.32,33.712, 22.864,40.512c 8.704,7.008, 19.568,12.8, 31.376,16.784
			C 227.344,413.744, 241.408,416, 256,416s 28.656-2.256, 41.76-6.704c 11.808-3.984, 22.672-9.76, 31.376-16.784C 337.68,385.712, 352,371.344, 352,352L 352,256 z"  />
<glyph unicode="&#x31;" d="M 512,192.512l0,63.984 l-75.312,31.392c-2.32,6.48-4.816,12.8-7.808,19.008l 30.448,75.872l-45.264,45.232
			l-75.568-31.104c-6.064,2.88-12.272,5.2-18.624,7.392L 287.52,480l-64,0 L 191.84,403.888c-6.064-2.256-12.080-4.64-17.808-7.392L 97.28,427.232
			L 52.016,382l 31.52-76.368c-2.688-5.728-4.88-11.584-7.008-17.504L0,255.488l0-63.968 l 76.496-31.904c 2.128-5.968, 4.368-11.792, 7.136-17.488
			l-30.896-76.88l 45.264-45.264l 76.176,31.392c 5.824-2.816, 11.776-5.184, 17.872-7.376L 224.512-32l 63.968,0 l 31.664,75.744
			c 6.336,2.256, 12.48,4.624, 18.544,7.504l 76.064-30.576l 45.264,45.264l-31.008,75.376c 3.008,6.192, 5.44,12.48, 7.744,19.008L 512,192.512z
			 M 256.496,128c-52.992,0-96,43.008-96,96c0,52.992, 43.008,96, 96,96c 52.992,0, 96-43.008, 96-96C 352.496,171.008, 309.488,128, 256.496,128z"  />
<glyph unicode="&#x32;" d="M 352.032,95.968L 64.016,95.968 l0,192 l 62.928,0 c 5.056,6, 10.448,11.68, 16.256,17.104
			c 22,20.592, 48.288,36.32, 78.048,46.912L0,351.984 L0,32 l 416,0 l0,134.32 l-63.968-42.672L 352.032,95.968 z M 128,159.984c0,0, 29.424,96, 192,96l0-96 l 192,127.984L 320,416l0-96 
			C 192.016,320, 128,240.16, 128,159.984z"  />
<glyph unicode="&#x33;" d="M 406.496,304l-88.944,115.744C 319.12,423.536, 320.016,427.664, 320.016,432c0,17.664-14.336,32-32.016,32
			c-17.68,0-32-14.336-32-32c0-17.664, 14.32-32, 32-32c 1.408,0, 2.832,0.096, 4.208,0.288L 366.144,304L 145.872,304 l 73.936,96.272
			C 221.184,400.080, 222.592,400, 224,400c 17.664,0, 32,14.336, 32,32c0,17.664-14.336,32-32,32c-17.664,0-32-14.336-32-32c0-4.32, 0.88-8.448, 2.448-12.24
			L 105.504,304L0,304 l0-64 l 32,0 l 32-256l 383.984,0 L 480,240l 32,0 l0,64 L 406.496,304 z M 159.984,48.016L 96.016,48.016 l0,63.968 l 63.968,0 L 159.984,48.016 z M 159.984,176L 96.016,176 l0,64 l 63.968,0 L 159.984,176 z
			 M 288,48.016l-64,0 l0,63.968 l 64,0 L 288,48.016 z M 288,176l-64,0 l0,64 l 64,0 L 288,176 z M 415.984,48.016l-63.968,0 l0,63.968 l 63.968,0 L 415.984,48.016 z M 415.984,176l-63.968,0 l0,64 l 63.968,0 L 415.984,176 z"  />
<glyph unicode="&#x34;" d="M 438.608,361.376l 72.768,72.688l-45.232,45.248l-72.768-72.688L 320,480l0-192 l 192,0 L 438.608,361.376z M 73.376,86.624
			L0,13.232L 45.248-32l 73.376,73.392L 192-32L 192,160 L0,160 L 73.376,86.624z M 320,160l0-192 l 73.376,73.392L 466.768-32L 512,13.232l-73.392,73.392L 512,160L 320,160 z
			 M 46,479.312L 0.752,434.064l 72.64-72.688L0,288l 192,0 L 192,480 L 118.624,406.624L 46,479.312z"  />
<glyph unicode="&#x35;" d="M 288,480L0,192l 224-224l 288,288L 512,480 L 288,480 z M 416,337.6
			c-25.616,0-46.4,20.8-46.4,46.4s 20.8,46.4, 46.4,46.4s 46.4-20.8, 46.4-46.4S 441.616,337.6, 416,337.6z"  />
<glyph unicode="&#x36;" d="M 256,480C 114.624,480,0,365.376,0,224s 114.624-256, 256-256s 256,114.624, 256,256
			S 397.376,480, 256,480z M 391.744,88.224c-28.592-28.592-64.624-47.056-103.744-53.568L 288,128 l-64,0 l0-93.344 c-39.12,6.496-75.152,24.976-103.744,53.568
			C 91.632,116.848, 73.184,152.88, 66.656,192L 160,192 l0,64 L 66.656,256 c 6.528,39.12, 24.976,75.152, 53.6,103.744C 148.848,388.368, 184.88,406.816, 224,413.344L 224,320 l 64,0 
			L 288,413.344 c 39.12-6.528, 75.152-24.976, 103.744-53.6c 28.624-28.592, 47.056-64.624, 53.6-103.744L 352,256 l0-64 l 93.344,0 
			C 438.816,152.88, 420.368,116.848, 391.744,88.224z"  />
<glyph unicode="&#x37;" d="M 458.016,296.48c 0.032,10.128-21.056,24-21.936,34.128
			c-0.848,10.096, 10.976,27.664, 10.976,37.776c 0.032,14.224-22.656,27.312-28.032,37.776c-3.632,7.056, 0.656,24.336-2.432,31.664
			c-5.376,12.752-28.224,32.624-41.408,36.56c-42.032,12.624-175.504,0-175.504,0L 53.952,454.928l0-198.912 l 47.44,0 
			c 14-7.776, 43.248-32.288, 79.536-124.624c 5.904-15.056, 17.056-24.32, 29.84-34.16c 21.28-16.4, 37.152-39.44, 42.496-122.464
			c 0.752-11.44, 36.56-9.744, 56.064,15.84c 15.968,20.944, 18.096,61.68, 5.504,92.4c-8.624,20.976-39.904,69.504-28.656,89.152
			c0,0, 115.056-4.288, 137.68,4.88c 14.288,5.776, 35.024,35.84, 34.16,51.184c-0.496,8.464-15.968,20.88-17.088,29.248
			C 439.552,268.016, 457.984,285.856, 458.016,296.48z"  />
<glyph unicode="&#x38;" d="M 458.016,151.552c-0.032,10.624-18.464,28.464-17.056,38.992c 1.088,8.368, 16.528,20.8, 17.024,29.264
			c 0.912,15.344-19.84,45.392-34.096,51.152c-22.64,9.184-137.696,4.912-137.696,4.912c-11.248,19.632, 20.032,68.192, 28.656,89.152
			c 12.624,30.72, 10.496,71.456-5.504,92.4c-19.504,25.568-55.312,27.28-56.064,15.84c-5.344-83.024-21.216-106.048-42.496-122.464
			c-12.784-9.872-23.936-18.496-29.84-33.536C 144.672,224.928, 115.424,195.216, 101.424,192L 53.984,192 l0-198.864 l 145.696-19.536c0,0, 133.44-12.624, 175.472,0
			c 13.248,3.968, 36.064,23.84, 41.424,36.56c 3.088,7.312-1.184,24.624, 2.432,31.68c 5.376,10.464, 28.064,23.568, 28.032,37.776
			c-0.032,10.128-11.808,27.664-10.976,37.776C 436.96,127.552, 458.048,141.392, 458.016,151.552z"  />
<glyph unicode="&#x39;" d="M 206.304,215.984L 104.816,306.4L 62.384,264c 41.728-39.2, 138.384-140.624, 171.056-179.424
			C 325.488,238.32, 421.168,350.832, 512,455.664l-17.984,17.984C 347.168,362.496, 206.304,215.984, 206.304,215.984z M 384.016,6.336L 32,6.336 l0,352 l 251.776,0 
			c 11.12,10.336, 22.88,21.056, 35.088,32.016L0,390.352 l0-416 l 416,0 L 416,265.328 c-10.736-13.792-21.392-27.76-31.984-42.016L 384.016,6.336 z"  />
<glyph unicode="&#x7e;" d="M 501.456,71.056L 271.184,268.448C 281.904,288.608, 288,311.568, 288,336c0,79.536-64.48,144-144,144
			C 129.472,480, 115.408,477.808, 102.192,473.808l 83.184-83.184c 12.432-12.432, 12.432-32.816,0-45.248l-50.736-50.736c-12.432-12.432-32.816-12.432-45.248,0
			L 6.192,377.808C 2.16,364.592,0,350.528,0,336c0-79.52, 64.464-144, 144-144c 24.4,0, 47.408,6.064, 67.568,16.816l 197.376-230.272
			c 11.472-13.376, 31.008-14.128, 43.472-1.68l 50.704,50.752C 515.584,40.064, 514.832,59.6, 501.456,71.056z"  />
<glyph unicode="&#x2a;" d="M 320,416L 320,480 l-128,0 l0-64 L 32,416 l0-96 l 32,32l 384,0 l 32-32L 480,416 L 320,416 z M 288,416l-64,0 L 224,448 l 64,0 L 288,416 z M 96-32l 320,0 l 32,352L 64,320 L 96-32z"  />
<glyph unicode="&#x40;" d="M 15.472,400.208L 305.008,400.208 c 8.528,0 15.456-6.912 15.456-15.456
			l0-209.152 c0-8.528, -6.928-15.472, -15.456-15.472l -289.552,0 c -8.528,0, -15.456,6.944, -15.456,15.472L 0,384.752 C 0.016,393.312, 6.944,400.208, 15.472,400.208z
			 M 383.168,336.352c0,0 32.752-0.992 41.456,0c 20.912,0 38.976-27.968 38.976-27.968L 512.016,236.448l0-135.696 c0-14.496, -14.528-14.496, -14.528-14.496
			c -15.472,0, -15.776,17.408, -15.776,17.408c0,41.568, -56.112,55.968, -56.112,55.968l -43.392,0 c -28.992,0, -29.952,31.44, -29.952,31.44l -0.32,116.272
			C 351.936,338.272, 383.168,336.352, 383.168,336.352z M 351.936,143.664c0-20.32, -15.472-30.4, -15.472-30.4l -205.712,0 c0,12.528 14.496,30.4 14.496,30.4L 351.936,143.664 z
			 M 49.152,144.128c 26.576,0 48.176-21.568 48.176-48.16c0-26.624, -21.6-48.192, -48.176-48.192c -26.624,0, -48.224,21.568, -48.224,48.192
			C 0.944,122.56, 22.528,144.128, 49.152,144.128z M 401.040,144.128c 26.576,0 48.176-21.568 48.176-48.16c0-26.624, -21.6-48.192, -48.176-48.192
			c -26.624,0, -48.208,21.568, -48.208,48.192C 352.848,122.56, 374.416,144.128, 401.040,144.128z"  />
<glyph unicode="&#x23;" d="M 426.688,480L 85.344,480 C 38.4,480,0,441.6,0,394.656l0-341.312 C0,6.368, 38.4-32, 85.344-32l 341.344,0 
			C 473.632-32, 512,6.368, 512,53.344L 512,394.656 C 512,441.6, 473.632,480, 426.688,480z M 402.192,216.944C 370.88,89.936, 160.688,36, 64,167.904
			c 37.024-35.344, 101.536-38.496, 142.432,3.808c-24-3.536-41.44,20.032-11.968,32.752c-26.496-2.912-41.248,11.216-47.28,23.184
			c 6.192,6.496, 13.056,9.536, 26.32,10.4c-28.992,6.848-39.712,21.024-43.008,38.288c 8.064,1.904, 18.128,3.6, 23.632,2.848
			c-25.408,13.28-34.224,33.28-32.848,48.32c 45.408-16.88, 74.336-30.4, 98.528-43.376c 8.592-4.624, 18.256-12.912, 29.088-23.44
			c 13.776,36.528, 30.88,74.192, 60.096,92.88c-0.496-4.224-2.752-8.16-5.744-11.408c 8.288,7.568, 19.024,12.752, 30,14.256
			c-1.28-8.256-13.088-12.88-20.256-15.536c 5.44,1.664, 34.192,14.496, 37.312,7.152c 3.712-8.288-19.84-12.128-23.808-13.568
			c-3.024-0.992-6-2.128-8.944-3.312c 36.432,3.632, 71.248-26.464, 81.376-63.776c 0.752-2.72, 1.472-5.68, 2.128-8.848
			c 13.312-4.944, 37.504,0.256, 45.248,5.024c-5.632-13.28-20.224-23.088-41.808-24.912c 10.368-4.32, 30-6.72, 43.504-4.4
			C 439.44,225.056, 425.664,216.752, 402.192,216.944z"  />
<glyph unicode="&#x24;" d="M 238.448,142.432c 2.272-4.496, 3.504-9.52, 3.504-14.864c0-8.72-3.424-17.040-9.504-23.12L 150.72,22.848
			c-6.176-6.288-14.32-9.504-23.184-9.504c-8.784,0-17.024,3.216-23.104,9.504l-49.712,49.616c-6.064,6.080-9.472,14.4-9.472,23.088
			c0,8.896, 3.392,17.040, 9.472,23.296l 81.728,81.632c 6.080,6.064, 14.304,9.504, 23.104,9.504c 5.264,0, 10.4-1.232, 14.912-3.504l 32.624,32.592
			c-13.872,10.736-30.656,16.16-47.536,16.16c-20,0-40-7.648-55.104-22.752L 22.72,150.832c-30.32-30.384-30.32-79.968,0-110.368l 49.696-49.648
			C 87.552-24.448, 107.552-32, 127.536-32c 19.984,0, 40,7.552, 55.2,22.816l 81.712,81.648c 27.952,27.968, 30.080,72.112, 6.624,102.624L 238.448,142.432z
			 M 489.2,407.552l-49.664,49.696C 424.432,472.432, 404.432,480, 384.448,480c-20.032,0-40.032-7.568-55.28-22.752l-81.648-81.696
			c-27.872-27.856-30.096-72.096-6.624-102.624l 32.624,32.624c-2.272,4.48-3.504,9.648-3.504,14.912c0,8.768, 3.424,17.008, 9.504,23.088
			l 81.632,81.712c 6.256,6.064, 14.4,9.488, 23.296,9.488c 8.688,0, 17.008-3.424, 23.088-9.488l 49.616-49.712
			c 6.304-6.112, 9.712-14.32, 9.712-23.104c0-8.864-3.424-16.992-9.712-23.184l-81.616-81.696c-6.080-6.080-14.4-9.52-23.12-9.52
			c-5.344,0-10.352,1.232-14.864,3.52l-32.656-32.624c 13.968-10.768, 30.688-16.064, 47.52-16.064c 19.984,0, 40.032,7.568, 55.12,22.688l 81.664,81.696
			C 519.6,327.568, 519.6,377.232, 489.2,407.552z M 159.984,128c 8.768-8.88, 23.68-8.4, 32.976,0.976l 158.064,158.064
			C 360.4,296.416, 360.864,311.216, 352,320s-23.584,8.432-32.992-0.976l-158.032-158.048C 151.552,151.584, 151.2,136.864, 159.984,128z"  />
<glyph unicode="&#x25;" d="M 495.68,386L 476.096,480L 6.192,382L 25.808,288L 495.68,386z
			 M 419.84,451.92l 43.84,9.168L 476.784,398.4l-81.472-16.976L 419.84,451.92z M 294.528,425.792l 62.656,13.040l-24.528-70.496l-62.656-13.040
			L 294.528,425.792z M 169.248,399.632l 62.656,13.072L 207.36,342.208L 144.704,329.168L 169.248,399.632z M 106.592,386.576l-24.528-70.496l-43.856-9.168
			L 25.152,369.568L 106.592,386.576z M 25.808,256l0-288 l 480,0 L 505.808,256 L 25.808,256 z M 473.808,160l-416,0 l0,32 l 416,0 L 473.808,160 z"  />
<glyph unicode="&#x5e;" d="M 297.744,131.44c-1.664,0-3.312-0.336-4.912-1.12c-1.6-0.72-3.184-1.904-4.784-3.536l0-72.096 
			c 1.872-1.872, 3.712-3.248, 5.504-4.064c 1.776-0.848, 3.632-1.248, 5.568-1.248c 2.88,0, 4.944,0.816, 6.288,2.432
			c 1.28,1.632, 1.968,4.256, 1.968,7.968l0,59.776 c0,3.904-0.784,6.88-2.432,8.88C 303.248,130.464, 300.88,131.44, 297.744,131.44z
			 M 355.904,289.936c-2.4-2.784-5.088-5.088-8-6.88c-2.944-1.776-5.376-2.688-7.28-2.688c-2.432,0-4.224,0.688-5.28,2.032
			c-1.088,1.344-1.68,3.536-1.68,6.56L 333.664,386.688 l-26,0 l0-106.528 c0-7.6, 1.536-13.28, 4.56-17.088c 3.056-3.776, 7.568-5.68, 13.632-5.68
			c 4.88,0, 9.904,1.344, 15.088,4.064c 5.216,2.688, 10.224,6.688, 14.976,11.84l0-14.064 l 26.064,0 L 381.984,386.688 l-26.064,0 L 355.92,289.936 z M 249.744,389.904
			c-11.84,0-21.28-2.944-28.288-8.784s-10.496-13.68-10.496-23.6l0-66.064 c0-10.848, 3.408-19.472, 10.256-25.872
			c 6.816-6.368, 15.936-9.6, 27.344-9.6c 11.808,0, 21.088,3.088, 27.872,9.312c 6.72,6.224, 10.096,14.752, 10.096,25.664L 286.528,356.816 
			c0,9.712-3.44,17.664-10.288,23.84C 269.344,386.816, 260.528,389.904, 249.744,389.904z M 260,289.056c0-3.408-1.024-6.096-3.12-8.064
			c-2.064-1.936-4.88-2.944-8.4-2.944c-3.44,0-6.096,0.976-7.936,2.88c-1.84,1.936-2.784,4.624-2.784,8.128l0,69.44 
			c0,2.784, 0.992,5.024, 2.976,6.752c 2,1.712, 4.592,2.56, 7.744,2.56c 3.472,0, 6.256-0.848, 8.368-2.56
			c 2.096-1.712, 3.152-3.968, 3.152-6.752L 260,289.056 z M 380.224,131.024c-3.68,0-6.32-1.024-7.904-3.152
			c-1.632-2.064-2.4-5.568-2.4-10.368l0-11.68 l 20.432,0 l0,11.68 c0,4.816-0.816,8.32-2.432,10.368C 386.336,130, 383.744,131.024, 380.224,131.024
			z M 426.688,480L 85.344,480 C 38.4,480,0,441.6,0,394.656l0-341.312 C0,6.368, 38.4-32, 85.344-32l 341.344,0 C 473.632-32, 512,6.368, 512,53.344L 512,394.656 
			C 512,441.6, 473.632,480, 426.688,480z M 162.944,166.752L 135.968,166.752 l0-134.064 L 109.904,32.688 l0,134.064 L 82.944,166.752 l0,22.784 l 80,0 L 162.944,166.752 z M 241.872,32.688l-23.12,0 l0,12.72 
			c-4.288-4.72-8.72-8.256-13.344-10.72s-9.088-3.68-13.44-3.68c-5.376,0-9.344,1.712-12.096,5.152
			c-2.688,3.472-4.064,8.592-4.064,15.504l0,96.784 l 23.12,0 l0-88.784 c0-2.72, 0.496-4.72, 1.44-5.904c 0.992-1.248, 2.592-1.872, 4.752-1.872
			c 1.68,0, 3.84,0.816, 6.432,2.464c 2.624,1.6, 4.992,3.68, 7.184,6.192l0,87.904 l 23.12,0 L 241.856,32.688 z M 331.216,56.624
			c0-8.192-1.808-14.496-5.44-18.88c-3.632-4.336-8.88-6.528-15.712-6.528c-4.56,0-8.56,0.816-12.096,2.528
			c-3.536,1.664-6.88,4.288-9.904,7.808l0-8.88 l-23.376,0 l0,156.848 l 23.376,0 l0-50.464 c 3.152,3.472, 6.432,6.224, 9.936,8.032
			c 3.536,1.808, 7.056,2.72, 10.656,2.72c 7.312,0, 12.912-2.464, 16.752-7.376c 3.872-4.944, 5.808-12.128, 5.808-21.6L 331.216,56.624 z M 414.16,87.808
			l-44.256,0 l0-21.84 c0-6.096, 0.752-10.32, 2.256-12.656c 1.536-2.368, 4.16-3.536, 7.84-3.536c 3.84,0, 6.528,1.024, 8.064,3.024
			c 1.504,1.968, 2.288,6.368, 2.288,13.152l0,5.28 l 23.808,0 l0-5.936 c0-11.84-2.88-20.816-8.72-26.816c-5.776-6-14.432-8.976-25.968-8.976
			c-10.336,0-18.528,3.184-24.464,9.536s-8.944,15.12-8.944,26.256l0,52 c0,10, 3.28,18.192, 9.808,24.528
			c 6.56,6.32, 14.976,9.472, 25.312,9.472c 10.624,0, 18.752-2.944, 24.432-8.816c 5.68-5.84, 8.528-14.256, 8.528-25.184L 414.144,87.808 z M 496,191.84
			C 481.376,211.344, 458.096,224, 432,224L 80,224 c-26.096,0-49.376-12.656-64-32.16L 16,394.656 C 16,432.88, 47.12,464, 85.344,464l 341.344,0 C 464.912,464, 496,432.88, 496,394.656
			L 496,191.84 z M 160.912,362.944L 159.056,362.944 L 140.032,432L 110.496,432 l 34.912-104.336l0-68.432 l 29.312,0 l0,71.68 L 208.848,432l-29.776,0 L 160.912,362.944z"  />
<glyph unicode="&#x21;" d="M 510.368,15.584L 291.328,464.608C 285.44,475.2, 272.608,480, 259.776,480c-12.352,0-25.024-3.872-30.72-14.336l-226.88-449.472
	C-4.352,1.216, 2.4-32, 41.312-32l 430.304,0 C 510.624-30.976, 517.888,0.96, 510.368,15.584z M 224.416,351.264l 64.384,0.224L 288.8,256 l-16.512-128.512L 240.704,127.488 
	L 224,256L 224.416,351.264z M 288,32L 224,32 l0,64 l 64,0 L 288,32 z"  />
<glyph unicode="&#x47;" d="M 470.736,261.776l0,23.104 l-82.464,0 
			c-6.656,2.848-131.712,56.432-131.712,56.432l-0.496,0.208l-0.48-0.208c0,0-125.088-53.6-131.76-56.432L 41.328,284.88 l0-23.104 L0,261.776 l0-155.312 l 512,0 l0,155.312 
			L 470.736,261.776 z M 501.136,117.36L 10.896,117.36 l0,133.536 l 41.312,0 l0,23.104 l 73.584,0 l 0.48,0.096c0,0, 120.96,51.808, 129.776,55.6
			c 8.832-3.776, 129.744-55.6, 129.744-55.6l 0.256-0.096l 73.792,0 l0-23.104 l 41.296,0 L 501.136,117.36 z M 397.392,243.584L 377.76,243.584 l0-25.104 l 16.24-0.032
			L 397.392,243.584z M 466,211.184c 3.872,0, 7.184,3.008, 7.184,7.136c0,4.096-3.312,7.088-7.184,7.088
			c-3.904,0-7.248-3.008-7.248-7.088C 458.752,214.208, 462.096,211.184, 466,211.184z M 466,224.24c 3.216,0, 5.744-2.528, 5.744-5.904
			c0-3.44-2.528-5.952-5.744-5.952c-3.264,0-5.808,2.512-5.808,5.952C 460.192,221.696, 462.736,224.24, 466,224.24z M 464.48,217.76
			l 1.456,0 l 2.144-3.568l 1.424,0 l-2.352,3.616c 1.216,0.144, 2.144,0.8, 2.144,2.272c0,1.632-0.992,2.336-2.896,2.336l-3.136,0 l0-8.224 l 1.232,0 
			L 464.496,217.76 z M 464.48,221.36l 1.696,0 c 0.88,0, 1.792-0.192, 1.792-1.2c0-1.264-0.96-1.328-2.016-1.328L 464.48,218.832 L 464.48,221.36 z M 81.312,243.584L 57.92,243.584 
			l0-105.92 l 59.616,0 l0,20.368 L 81.312,158.032 L 81.312,243.584 z M 316.896,137.664l 55.68,0 l0,20.368 l-32.176,0 l0,13.312 l 32.176,0 l0,19.648 l-32.176,0 l0,13.344 l 32.176,0 l0,20.496 l-55.68,0 
			L 316.896,137.664 z M 183.328,224.832L 138.112,224.832 c-6.144,0-11.136-4.992-11.136-11.12L 126.976,148.8 c0-6.176, 4.992-11.136, 11.136-11.136l 45.216,0 
			c 6.16,0, 11.136,4.976, 11.136,11.136l0,64.912 C 194.464,219.84, 189.488,224.832, 183.328,224.832z M 171.008,158.128L 150.416,158.128 l0,46.208 l 20.592,0 L 171.008,158.128 z
			 M 280.080,158.032l-14.144,0 l0,66.8 l-20.576,0 l0-66.8 l-14.128,0 l0,66.8 l-23.456,0 L 207.776,148.8 c0-6.176, 4.992-11.136, 11.136-11.136l 27.712,0 
			c 4.672,0, 9.008,3.2, 9.008,7.856c0-4.656, 4.336-7.856, 9.008-7.856l 27.696,0 c 6.16,0, 11.12,4.976, 11.12,11.136l0,76.032 l-23.424,0 L 280.032,158.032 z
			 M 454.8,170.576l-0.176,0.32l-0.256,0.56l-0.144,0.288c-3.728,7.44-12.016,13.648-25.408,19.008l-0.448,0.176
			c-2.656,1.008-10.72,4.192-11.616,9.312c-0.24,1.44, 0.336,3.68, 1.952,5.056c 1.68,1.696, 4.256,2.592, 7.664,2.592
			c 5.44,0, 11.648-2.24, 14.848-3.584c 6.768-2.784, 12.688-5.312, 12.752-5.312l 0.608-0.256l0,19.008 l-0.224,0.128
			c-0.112,0.080-12.896,8.144-25.824,10c-1.488,0.112-2.976,0.192-4.368,0.192c-11.872,0-20.896-4.336-26.752-12.848
			c-4.944-7.008-5.504-18.080-1.296-26.352c 5.392-9.328, 14.016-13.248, 22.368-17.008c 3.456-1.552, 7.008-3.168, 10.352-5.136l 0.032-0.048
			c 3.776-2.256, 5.664-5.696, 4.912-8.816c-0.848-3.168-4.48-5.312-9.088-5.312c-0.64,0-1.264,0.032-1.904,0.112l-0.208,0.032
			c-8.896,1.264-26.864,7.92-27.024,8l-0.608,0.256l0-20.912 l 0.336-0.112c 0.144-0.032, 17.552-5.808, 33.008-5.808
			c 8.448,0, 14.8,1.696, 18.928,5.072c 0.112,0.032, 9.552,7.648, 9.968,20.544c 0.112,3.6-0.704,7.216-2.416,10.864L 454.8,170.592 z"  />
<glyph unicode="&#x48;" d="M 20.47,239.553l-12.246,19.214l-8.216,0 l0-38.246 l 9.412,0 l0,19.214 
			l 12.246-19.214l 8.19,0 l0,38.246 l-9.386,0 L 20.47,239.553 z M 37.604,220.521l 10.322,0 l0-62.816 l 15.678,0 l0,71.188 l-16.614,0 l0,6.708 l 14.17,0 l0,8.372 l-14.17,0 l0,6.396 
			l 16.614,0 l0,8.372 l-26,0 L 37.604,220.521 z M 193.058,228.581c-3.068,0-6.552,0.702-8.528,2.704l-6.006-6.006c 3.848-3.978, 8.632-5.044, 14.508-5.044
			c 8.060,0, 14.742,4.238, 14.742,12.038c0,3.536-0.78,6.396-2.834,8.372c-1.612,1.612-4.056,2.704-7.514,3.172l-4.628,0.624
			c-1.326,0.156-2.132,0.65-2.626,1.118c-0.572,0.598-0.754,1.3-0.754,1.768c0,1.664, 1.352,3.536, 4.628,3.536
			c 1.664,0, 4.836,0.156, 7.254-2.262l 5.902,5.928c-3.276,3.276-7.384,4.55-12.87,4.55c-8.71,0-13.962-5.096-13.962-12.064
			c0-3.276, 0.858-5.876, 2.626-7.67c 1.716-1.768, 4.316-2.886, 7.696-3.38l 4.628-0.65c 1.222-0.156, 2.028-0.546, 2.522-1.014
			c 0.546-0.598, 0.754-1.352, 0.754-2.236C 198.544,229.829, 196.776,228.581, 193.058,228.581z M 272.15,239.657
			c0,5.746, 0.182,11.128-3.848,15.158c-2.782,2.782-6.006,4.29-10.686,4.29s-7.904-1.508-10.686-4.29
			c-4.004-4.030-3.848-9.412-3.848-15.158c0-5.746-0.156-11.128, 3.848-15.158c 2.782-2.782, 6.006-4.29, 10.686-4.29
			s 7.904,1.508, 10.686,4.29C 272.332,228.529, 272.15,233.911, 272.15,239.657z M 261.36,230.297c-0.676-0.91-2.028-1.716-3.77-1.716
			s-3.042,0.806-3.77,1.716c-0.858,1.118-1.404,2.366-1.404,9.334s 0.546,8.268, 1.404,9.412c 0.702,0.91, 2.028,1.664, 3.77,1.664
			s 3.068-0.754, 3.77-1.664c 0.858-1.118, 1.404-2.418, 1.404-9.412S 262.244,231.441, 261.36,230.297z M 293.808,234.171
			c 8.476,0, 13.052,6.006, 13.052,12.298c0,6.292-4.576,12.298-13.052,12.298l-15.158,0 l0-37.050 c-5.85-0.702-10.244-3.068-14.092-6.942
			c-6.708-6.708-6.422-15.652-6.422-25.246c0-9.568-0.286-18.512, 6.422-25.246c 4.654-4.654, 10.036-7.15, 17.836-7.15
			c 7.774,0, 13.156,2.522, 17.81,7.15c 6.708,6.734, 6.448,15.678, 6.448,25.246c0,9.594, 0.26,18.512-6.448,25.246
			c-3.432,3.432-7.228,5.668-12.142,6.63l0,12.766 L 293.808,234.171 z M 288.062,250.343l 5.33,0 c 2.574,0, 4.056-1.872, 4.056-3.874
			c0-1.976-1.508-3.874-4.056-3.874l-5.33,0 L 288.062,250.343 z M 288.634,205.207c 1.456-1.872, 2.34-4.030, 2.34-15.678s-0.884-13.676-2.34-15.574
			c-1.17-1.534-3.406-2.86-6.24-2.86c-2.86,0-5.096,1.352-6.266,2.86c-1.456,1.872-2.34,3.926-2.34,15.574s 0.884,13.78, 2.34,15.678
			c 1.17,1.534, 3.406,2.756, 6.266,2.756C 285.228,207.989, 287.464,206.741, 288.634,205.207z M 173.948,221.405l-8.996,0 l-7.826,15.054
			c 3.016,1.508, 6.24,4.784, 6.24,9.984c0,6.292-4.576,12.298-13.052,12.298l-15.158,0 L 135.156,221.405 l-6.656,0 l0,7.488 l-16.614,0 l0,6.708 l 14.196,0 l0,8.372 
			l-14.196,0 l0,6.396 l 16.614,0 l0,8.372 l-26,0 l0-38.246 l 17.446,0 l-13.858-27.222L 91.762,221.405l-5.486,0 l 12.402,37.362l-9.776,0 l-6.344-21.372l-6.448,21.372L 66.36,258.767 
			l 12.35-37.362l-2.34,0 l0-63.7 l 15.678,0 l0,30.498 l 9.048-15.73l 10.036,0 l 9.048,15.73l0-30.498 l 15.678,0 l0,62.816 l 8.762,0 l0,14.222 l 3.172,0 l 6.344-13.338l-5.382,0 
			l0-63.7 l 15.678,0 l0,22.698 l 9.568,0 c 14.144,0, 21.736,10.062, 21.736,20.514C 195.684,211.395, 188.092,221.405, 173.948,221.405z M 149.898,242.595l-5.33,0 l0,7.748 
			l 5.33,0 c 2.574,0, 4.056-1.872, 4.056-3.874C 153.954,244.493, 152.472,242.595, 149.898,242.595z M 173.246,194.469L 164.38,194.469 L 164.38,207.365 l 8.866,0 
			c 4.29,0, 6.812-3.146, 6.812-6.448S 177.536,194.469, 173.246,194.469z M 250.336,200.917c0,9.984-6.942,19.526-19.838,20.41l0,29.068 l 9.412,0 
			l0,8.372 L 211.7,258.767 l0-8.372 l 9.386,0 L 221.086,221.405 l-17.784,0 l0-63.7 l 15.678,0 l0,23.686 l 5.252,0 l 11.31-23.686l 18.148,0 l-13.754,26.546
			C 244.954,186.773, 250.336,192.233, 250.336,200.917z M 227.846,194.469L 218.98,194.469 L 218.98,207.365 l 8.866,0 c 4.29,0, 6.812-3.146, 6.812-6.448
			S 232.136,194.469, 227.846,194.469z M 335.564,185.785l-10.738,35.62l-16.198,0 l 21.060-63.7l 11.622,0 l 21.112,63.7l-16.276,0 L 335.564,185.785z M 368.87,157.705
			l 15.652,0 L 384.522,221.405 l-15.652,0 L 368.87,157.705 z M 430.022,189.373L 409.612,221.405l-13.702,0 l0-63.7 l 15.678,0 l0,32.006 l 20.41-32.006l 13.676,0 L 445.674,221.405 l-15.678,0 L 429.996,189.373 z
			 M 504.148,194.365l-24.986,0 l0-13.052 L 488.6,181.313 l0-0.91 c0-2.418-0.624-4.992-2.444-6.786c-1.43-1.534-3.666-2.522-6.994-2.522
			c-2.834,0-4.992,1.17-6.162,2.704c-1.43,1.872-2.34,4.108-2.34,15.73s 0.91,13.78, 2.34,15.678
			c 1.17,1.534, 3.328,2.756, 6.162,2.756c 5.382,0, 7.904-2.314, 9.152-7.15l 15.73,0 c-1.534,10.478-8.476,21.112-24.882,21.112
			c-7.696,0-13.052-2.496-17.706-7.15c-6.734-6.708-6.448-15.652-6.448-25.246c0-9.568-0.286-18.512, 6.448-25.246
			c 4.654-4.654, 10.296-7.15, 17.706-7.15c 6.994,0, 13.078,1.534, 18.538,7.15c 4.836,4.914, 6.448,10.92, 6.448,21.216L 504.148,194.365 z M 501.704,161.735
			l 1.56,0 l0-4.056 l 0.962,0 l0,4.056 l 1.56,0 l0,0.806 l-4.056,0 L 501.73,161.735 z M 511.636,162.567l-1.404,0 L 509.4,160.123c-0.13-0.338-0.234-0.754-0.364-1.196
			c-0.13,0.52-0.208,0.858-0.338,1.248l-0.832,2.392l-1.456,0 l-0.39-4.888l 0.936,0 l 0.182,2.86c 0.026,0.442, 0.026,0.91, 0.026,1.352
			l 0.078,0 c 0.104-0.416, 0.26-1.014, 0.338-1.378l 0.884-2.756l 0.988,0 l 0.884,2.704c 0.13,0.468, 0.286,1.040, 0.416,1.456l 0.052,0 
			c 0.026-0.52, 0.026-0.962, 0.026-1.352l 0.208-2.86L 512,157.705 L 511.636,162.567z M -53.318,258.767L -100.014,258.767 l-74.932,32.084l-74.906-32.084L -296.6,258.767 l0-13.078 L-320,245.689 
			l0-88.010 l 290.082,0 l0,88.010 l-23.4,0 L -53.318,258.767 z M -36.080,239.501l0-75.66 L -313.838,163.841 l0,75.66 l 23.4,0 L -290.438,252.605 l 41.964,0 l 73.58,31.564l 73.58-31.564l 41.782,0 l0-13.078 L -36.080,239.527 z
			 M -94.632,235.367l-11.128,0l0-14.222 l 9.204,0L -94.632,235.367z M -56.62,220.755l 0.806,0 l 1.222-2.028l 0.78,0 l-1.326,2.054
			c 0.676,0.078, 1.222,0.468, 1.222,1.274c0,0.91-0.546,1.326-1.638,1.326l-1.768,0 l0-4.654 l 0.702,0 L -56.62,220.755 z M -56.62,222.783l 0.962,0 
			c 0.494,0, 1.014-0.104, 1.014-0.676c0-0.702-0.546-0.754-1.144-0.754L -56.62,221.353 L -56.62,222.783 z M -55.762,217.011c 2.184,0, 4.056,1.716, 4.056,4.056
			c0,2.314-1.872,4.004-4.056,4.004c-2.236,0-4.108-1.69-4.108-4.004C -59.87,218.727, -57.998,217.011, -55.762,217.011z M -55.762,224.421
			c 1.82,0, 3.25-1.456, 3.25-3.354c0-1.95-1.43-3.354-3.25-3.354c-1.846,0-3.302,1.43-3.302,3.354
			C -59.064,222.965, -57.608,224.421, -55.762,224.421z M -273.72,235.367l-13.26,0 l0-60.034 l 33.774,0 l0,11.544 L -273.72,186.877 L -273.72,235.367 z M -140.236,175.333l 31.564,0 l0,11.57 
			L -126.898,186.903 l0,7.514 l 18.226,0 l0,11.128 L -126.898,205.545 l0,7.592 l 18.226,0 l0,11.596 L -140.236,224.733 L -140.236,175.333 z M -215.922,224.733L -241.506,224.733 c-3.51,0-6.318-2.808-6.318-6.318l0-36.79 
			c0-3.484, 2.808-6.318, 6.318-6.318l 25.584,0 c 3.51,0, 6.318,2.834, 6.318,6.318l0,36.79 C -209.604,221.925, -212.412,224.733, -215.922,224.733z
			 M -222.916,186.955L -234.564,186.955 l0,26.182 l 11.648,0 L -222.916,186.955 z M -161.114,186.877L -169.096,186.877 l0,37.856 L -180.796,224.733 l0-37.856 L -188.778,186.877 l0,37.856 L -202.064,224.733 l0-43.082 
			c0-3.484, 2.808-6.318, 6.318-6.318l 15.704,0 c 2.652,0, 5.096,1.82, 5.096,4.498c0-2.678, 2.47-4.498, 5.096-4.498L -154.12,175.333 
			c 3.484,0, 6.292,2.834, 6.292,6.318l0,43.082 L -161.114,224.733 L -161.114,186.877 z M -62.21,194.183c-0.052,0.104-0.104,0.234-0.156,0.338l-0.078,0.156
			c-2.106,4.212-6.812,7.722-14.378,10.764l-0.286,0.104c-1.508,0.572-6.058,2.366-6.578,5.278c-0.156,0.806, 0.208,2.080, 1.092,2.86
			c 0.962,0.962, 2.444,1.482, 4.368,1.482c 3.068,0, 6.578-1.274, 8.398-2.028c 3.822-1.586, 7.176-3.016, 7.228-3.016l 0.338-0.13l0,10.79 
			L -62.34,220.807c-0.078,0.052-7.332,4.602-14.638,5.668c-0.832,0.052-1.664,0.104-2.47,0.104c-6.76,0-11.856-2.444-15.184-7.28
			c-2.756-3.952-3.094-10.244-0.702-14.924c 3.042-5.304, 7.956-7.514, 12.662-9.646c 1.95-0.884, 3.952-1.794, 5.876-2.912l 0.026-0.026
			c 2.132-1.274, 3.224-3.224, 2.756-4.966c-0.468-1.794-2.548-3.016-5.148-3.016c-0.364,0-0.702,0.026-1.066,0.052l-0.13,0.026
			c-5.018,0.702-15.21,4.498-15.34,4.55l-0.312,0.13l0-11.83 l 0.156-0.052c 0.104-0.052, 9.958-3.302, 18.746-3.302
			c 4.784,0, 8.372,0.962, 10.712,2.834c 0.052,0.052, 5.408,4.342, 5.642,11.674c 0.078,2.002-0.39,4.082-1.378,6.136L -62.21,194.183z"  />
<glyph unicode="&#x26;" d="M 256,448c-70.692,0-134.688-28.66-181.016-74.989L0,448l0-192 l 192,0 l-71.766,71.761C 154.982,362.507, 202.98,384, 256,384
	c 106.034,0, 192-85.962, 192-192c0-57.348-25.146-108.818-65.009-144l 42.333-48C 478.475,46.908, 512,115.538, 512,192
	C 512,333.385, 397.385,448, 256,448z"  />
<glyph unicode="&#x2d;" d="M0,192c0-76.462, 33.524-145.092, 86.675-192l 42.333,48C 89.145,83.182, 64,134.652, 64,192c0,106.038, 85.965,192, 192,192
	c 53.021,0, 101.019-21.493, 135.765-56.239L 320,256l 192,0 L 512,448 l-74.985-74.989C 390.688,419.34, 326.693,448, 256,448
	C 114.615,448,0,333.385,0,192z"  />
<glyph unicode="&#x3d;" d="M 256,480C 114.615,480,0,365.385,0,224s 114.615-256, 256-256s 256,114.615, 256,256S 397.385,480, 256,480z M 384,306.745L 301.256,224
	L 384,141.256L 384,96 l-45.256,0 L 256,178.744L 173.255,96L 128,96 l0,45.256 L 210.745,224L 128,306.745L 128,352 l 45.255,0 L 256,269.255L 338.744,352L 384,352 
	L 384,306.745 z"  />
<glyph unicode="&#x28;" d="M 256,480C 114.615,480,0,365.385,0,224s 114.615-256, 256-256s 256,114.615, 256,256S 397.385,480, 256,480z M 208,64L 102,202l 47,49l 59-75
	l 185,151l 23-23L 208,64z"  />
<glyph unicode="&#x71;" d="M 420.768,480l-329.6,0 c-20.224,0-36.608-16.384-36.608-36.608l0-439.456 c0-20.256, 16.384-36.64, 36.608-36.64l 255.808,0 l 110.432,108.704l0,367.36 
	C 457.408,463.616, 441.024,480, 420.768,480z M 430.496,80.608l-88.672-88.672c-16.032-16.032-12.608,12.032-12.608,12.032l0,73.216 
	c0,17.728, 17.184,17.728, 17.184,17.728l 77.248,0 C 450.528,95.488, 430.496,80.608, 430.496,80.608z"  />
<glyph unicode="&#x75;" d="M 255.984,467.456l-79.072-160.304L0,281.488l 128-124.768L 97.776-19.456l 158.208,83.152L 255.984,467.456 z"  />
<glyph unicode="&#x5b;" d="M 267.313,468.686C 261.091,474.908, 248.8,480, 240,480L 48,480 c-8.8,0-16-7.2-16-16l0-480 c0-8.8, 7.2-16, 16-16l 384,0 c 8.8,0, 16,7.2, 16,16L 448,272 
		c0,8.8-5.091,21.091-11.313,27.313L 267.313,468.686z M 416,0L 64,0 L 64,448 l 175.579,0 c 1.458-0.24, 4.204-1.377, 5.405-2.239l 168.778-168.777
		c 0.861-1.201, 1.998-3.947, 2.238-5.405L 416,0 zM 432,480l-96,0 c-8.8,0-10.909-5.091-4.687-11.313l 105.373-105.373C 442.909,357.091, 448,359.2, 448,368L 448,464 C 448,472.8, 440.8,480, 432,480
		z"  />
<glyph unicode="&#x70;" d="M 352,160c-32-32-32-64-64-64s-64,32-96,64s-64,64-64,96s 32,32, 64,64S 128,448, 96,448S0,352,0,352c0-64, 65.75-193.75, 128-256
	s 192-128, 256-128c0,0, 96,64, 96,96S 384,192, 352,160z"  />
<glyph unicode="&#x20;" horiz-adv-x="256" />
</font>
</defs>
</svg>
